<svg width="1274" height="737" viewBox="0 0 1274 737" fill="none" xmlns="http://www.w3.org/2000/svg">
<g opacity="0.25">
<path d="M16.1702 16L32.3404 0H0L16.1702 16Z" fill="#008C83"/>
<path d="M0 1L32.3404 33H0V1Z" fill="#008C83"/>
<path d="M60.5106 16L76.6808 0H44.3404L60.5106 16Z" fill="#008C83"/>
<path d="M44.3404 1L76.6808 33H44.3404V1Z" fill="#008C83"/>
<path d="M104.851 16L121.021 0H88.6808L104.851 16Z" fill="#008C83"/>
<path d="M88.6808 1L121.021 33H88.6808V1Z" fill="#008C83"/>
<path d="M149.191 16L165.362 0H133.021L149.191 16Z" fill="#008C83"/>
<path d="M133.021 1L165.362 33H133.021V1Z" fill="#008C83"/>
<path d="M193.532 16L209.702 0H177.362L193.532 16Z" fill="#008C83"/>
<path d="M177.362 1L209.702 33H177.362V1Z" fill="#008C83"/>
<path d="M237.872 16L254.043 0H221.702L237.872 16Z" fill="#008C83"/>
<path d="M221.702 1L254.043 33H221.702V1Z" fill="#008C83"/>
<path d="M282.213 16L298.383 0H266.043L282.213 16Z" fill="#008C83"/>
<path d="M266.043 1L298.383 33H266.043V1Z" fill="#008C83"/>
<path d="M326.553 16L342.723 0H310.383L326.553 16Z" fill="#008C83"/>
<path d="M310.383 1L342.723 33H310.383V1Z" fill="#008C83"/>
<path d="M370.894 16L387.064 0H354.723L370.894 16Z" fill="#008C83"/>
<path d="M354.723 1L387.064 33H354.723V1Z" fill="#008C83"/>
<path d="M415.234 16L431.404 0H399.064L415.234 16Z" fill="#008C83"/>
<path d="M399.064 1L431.404 33H399.064V1Z" fill="#008C83"/>
<path d="M459.574 16L475.745 0H443.404L459.574 16Z" fill="#008C83"/>
<path d="M443.404 1L475.745 33H443.404V1Z" fill="#008C83"/>
<path d="M503.915 16L520.085 0H487.745L503.915 16Z" fill="#008C83"/>
<path d="M487.745 1L520.085 33H487.745V1Z" fill="#008C83"/>
<path d="M548.255 16L564.426 0H532.085L548.255 16Z" fill="#008C83"/>
<path d="M532.085 1L564.426 33H532.085V1Z" fill="#008C83"/>
<path d="M592.596 16L608.766 0H576.426L592.596 16Z" fill="#008C83"/>
<path d="M576.426 1L608.766 33H576.426V1Z" fill="#008C83"/>
<path d="M636.936 16L653.106 0H620.766L636.936 16Z" fill="#008C83"/>
<path d="M620.766 1L653.106 33H620.766V1Z" fill="#008C83"/>
<path d="M681.277 16L697.447 0H665.106L681.277 16Z" fill="#008C83"/>
<path d="M665.106 1L697.447 33H665.106V1Z" fill="#008C83"/>
<path d="M725.617 16L741.787 0H709.447L725.617 16Z" fill="#008C83"/>
<path d="M709.447 1L741.787 33H709.447V1Z" fill="#008C83"/>
<path d="M769.958 16L786.128 0H753.787L769.958 16Z" fill="#008C83"/>
<path d="M753.787 1L786.128 33H753.787V1Z" fill="#008C83"/>
<path d="M814.298 16L830.468 0H798.128L814.298 16Z" fill="#008C83"/>
<path d="M798.128 1L830.468 33H798.128V1Z" fill="#008C83"/>
<path d="M858.638 16L874.809 0H842.468L858.638 16Z" fill="#008C83"/>
<path d="M842.468 1L874.809 33H842.468V1Z" fill="#008C83"/>
<path d="M902.979 16L919.149 0H886.809L902.979 16Z" fill="#008C83"/>
<path d="M886.809 1L919.149 33H886.809V1Z" fill="#008C83"/>
<path d="M947.319 16L963.49 0H931.149L947.319 16Z" fill="#008C83"/>
<path d="M931.149 1L963.49 33H931.149V1Z" fill="#008C83"/>
<path d="M991.66 16L1007.83 0H975.49L991.66 16Z" fill="#008C83"/>
<path d="M975.49 1L1007.83 33H975.49V1Z" fill="#008C83"/>
<path d="M1036 16L1052.17 0H1019.83L1036 16Z" fill="#008C83"/>
<path d="M1019.83 1L1052.17 33H1019.83V1Z" fill="#008C83"/>
<path d="M1080.34 16L1096.51 0H1064.17L1080.34 16Z" fill="#008C83"/>
<path d="M1064.17 1L1096.51 33H1064.17V1Z" fill="#008C83"/>
<path d="M1124.68 16L1140.85 0H1108.51L1124.68 16Z" fill="#008C83"/>
<path d="M1108.51 1L1140.85 33H1108.51V1Z" fill="#008C83"/>
<path d="M1169.02 16L1185.19 0H1152.85L1169.02 16Z" fill="#008C83"/>
<path d="M1152.85 1L1185.19 33H1152.85V1Z" fill="#008C83"/>
<path d="M1213.36 16L1229.53 0H1197.19L1213.36 16Z" fill="#008C83"/>
<path d="M1197.19 1L1229.53 33H1197.19V1Z" fill="#008C83"/>
<path d="M1257.7 16L1273.87 0H1241.53L1257.7 16Z" fill="#008C83"/>
<path d="M1241.53 1L1273.87 33H1241.53V1Z" fill="#008C83"/>
<path d="M16.1702 60L32.3404 44H0L16.1702 60Z" fill="#008C83"/>
<path d="M0 45L32.3404 77H0V45Z" fill="#008C83"/>
<path d="M60.5106 60L76.6808 44H44.3404L60.5106 60Z" fill="#008C83"/>
<path d="M44.3404 45L76.6808 77H44.3404V45Z" fill="#008C83"/>
<path d="M104.851 60L121.021 44H88.6808L104.851 60Z" fill="#008C83"/>
<path d="M88.6808 45L121.021 77H88.6808V45Z" fill="#008C83"/>
<path d="M149.191 60L165.362 44H133.021L149.191 60Z" fill="#008C83"/>
<path d="M133.021 45L165.362 77H133.021V45Z" fill="#008C83"/>
<path d="M193.532 60L209.702 44H177.362L193.532 60Z" fill="#008C83"/>
<path d="M177.362 45L209.702 77H177.362V45Z" fill="#008C83"/>
<path d="M237.872 60L254.043 44H221.702L237.872 60Z" fill="#008C83"/>
<path d="M221.702 45L254.043 77H221.702V45Z" fill="#008C83"/>
<path d="M282.213 60L298.383 44H266.043L282.213 60Z" fill="#008C83"/>
<path d="M266.043 45L298.383 77H266.043V45Z" fill="#008C83"/>
<path d="M326.553 60L342.723 44H310.383L326.553 60Z" fill="#008C83"/>
<path d="M310.383 45L342.723 77H310.383V45Z" fill="#008C83"/>
<path d="M370.894 60L387.064 44H354.723L370.894 60Z" fill="#008C83"/>
<path d="M354.723 45L387.064 77H354.723V45Z" fill="#008C83"/>
<path d="M415.234 60L431.404 44H399.064L415.234 60Z" fill="#008C83"/>
<path d="M399.064 45L431.404 77H399.064V45Z" fill="#008C83"/>
<path d="M459.574 60L475.745 44H443.404L459.574 60Z" fill="#008C83"/>
<path d="M443.404 45L475.745 77H443.404V45Z" fill="#008C83"/>
<path d="M503.915 60L520.085 44H487.745L503.915 60Z" fill="#008C83"/>
<path d="M487.745 45L520.085 77H487.745V45Z" fill="#008C83"/>
<path d="M548.255 60L564.426 44H532.085L548.255 60Z" fill="#008C83"/>
<path d="M532.085 45L564.426 77H532.085V45Z" fill="#008C83"/>
<path d="M592.596 60L608.766 44H576.426L592.596 60Z" fill="#008C83"/>
<path d="M576.426 45L608.766 77H576.426V45Z" fill="#008C83"/>
<path d="M636.936 60L653.106 44H620.766L636.936 60Z" fill="#008C83"/>
<path d="M620.766 45L653.106 77H620.766V45Z" fill="#008C83"/>
<path d="M681.277 60L697.447 44H665.106L681.277 60Z" fill="#008C83"/>
<path d="M665.106 45L697.447 77H665.106V45Z" fill="#008C83"/>
<path d="M725.617 60L741.787 44H709.447L725.617 60Z" fill="#008C83"/>
<path d="M709.447 45L741.787 77H709.447V45Z" fill="#008C83"/>
<path d="M769.958 60L786.128 44H753.787L769.958 60Z" fill="#008C83"/>
<path d="M753.787 45L786.128 77H753.787V45Z" fill="#008C83"/>
<path d="M814.298 60L830.468 44H798.128L814.298 60Z" fill="#008C83"/>
<path d="M798.128 45L830.468 77H798.128V45Z" fill="#008C83"/>
<path d="M858.638 60L874.809 44H842.468L858.638 60Z" fill="#008C83"/>
<path d="M842.468 45L874.809 77H842.468V45Z" fill="#008C83"/>
<path d="M902.979 60L919.149 44H886.809L902.979 60Z" fill="#008C83"/>
<path d="M886.809 45L919.149 77H886.809V45Z" fill="#008C83"/>
<path d="M947.319 60L963.49 44H931.149L947.319 60Z" fill="#008C83"/>
<path d="M931.149 45L963.49 77H931.149V45Z" fill="#008C83"/>
<path d="M991.66 60L1007.83 44H975.49L991.66 60Z" fill="#008C83"/>
<path d="M975.49 45L1007.83 77H975.49V45Z" fill="#008C83"/>
<path d="M1036 60L1052.17 44H1019.83L1036 60Z" fill="#008C83"/>
<path d="M1019.83 45L1052.17 77H1019.83V45Z" fill="#008C83"/>
<path d="M1080.34 60L1096.51 44H1064.17L1080.34 60Z" fill="#008C83"/>
<path d="M1064.17 45L1096.51 77H1064.17V45Z" fill="#008C83"/>
<path d="M1124.68 60L1140.85 44H1108.51L1124.68 60Z" fill="#008C83"/>
<path d="M1108.51 45L1140.85 77H1108.51V45Z" fill="#008C83"/>
<path d="M1169.02 60L1185.19 44H1152.85L1169.02 60Z" fill="#008C83"/>
<path d="M1152.85 45L1185.19 77H1152.85V45Z" fill="#008C83"/>
<path d="M1213.36 60L1229.53 44H1197.19L1213.36 60Z" fill="#008C83"/>
<path d="M1197.19 45L1229.53 77H1197.19V45Z" fill="#008C83"/>
<path d="M1257.7 60L1273.87 44H1241.53L1257.7 60Z" fill="#008C83"/>
<path d="M1241.53 45L1273.87 77H1241.53V45Z" fill="#008C83"/>
<path d="M16.1702 104L32.3404 88H0L16.1702 104Z" fill="#008C83"/>
<path d="M0 89L32.3404 121H0V89Z" fill="#008C83"/>
<path d="M60.5106 104L76.6808 88H44.3404L60.5106 104Z" fill="#008C83"/>
<path d="M44.3404 89L76.6808 121H44.3404V89Z" fill="#008C83"/>
<path d="M104.851 104L121.021 88H88.6808L104.851 104Z" fill="#008C83"/>
<path d="M88.6808 89L121.021 121H88.6808V89Z" fill="#008C83"/>
<path d="M149.191 104L165.362 88H133.021L149.191 104Z" fill="#008C83"/>
<path d="M133.021 89L165.362 121H133.021V89Z" fill="#008C83"/>
<path d="M193.532 104L209.702 88H177.362L193.532 104Z" fill="#008C83"/>
<path d="M177.362 89L209.702 121H177.362V89Z" fill="#008C83"/>
<path d="M237.872 104L254.043 88H221.702L237.872 104Z" fill="#008C83"/>
<path d="M221.702 89L254.043 121H221.702V89Z" fill="#008C83"/>
<path d="M282.213 104L298.383 88H266.043L282.213 104Z" fill="#008C83"/>
<path d="M266.043 89L298.383 121H266.043V89Z" fill="#008C83"/>
<path d="M326.553 104L342.723 88H310.383L326.553 104Z" fill="#008C83"/>
<path d="M310.383 89L342.723 121H310.383V89Z" fill="#008C83"/>
<path d="M370.894 104L387.064 88H354.723L370.894 104Z" fill="#008C83"/>
<path d="M354.723 89L387.064 121H354.723V89Z" fill="#008C83"/>
<path d="M415.234 104L431.404 88H399.064L415.234 104Z" fill="#008C83"/>
<path d="M399.064 89L431.404 121H399.064V89Z" fill="#008C83"/>
<path d="M459.574 104L475.745 88H443.404L459.574 104Z" fill="#008C83"/>
<path d="M443.404 89L475.745 121H443.404V89Z" fill="#008C83"/>
<path d="M503.915 104L520.085 88H487.745L503.915 104Z" fill="#008C83"/>
<path d="M487.745 89L520.085 121H487.745V89Z" fill="#008C83"/>
<path d="M548.255 104L564.426 88H532.085L548.255 104Z" fill="#008C83"/>
<path d="M532.085 89L564.426 121H532.085V89Z" fill="#008C83"/>
<path d="M592.596 104L608.766 88H576.426L592.596 104Z" fill="#008C83"/>
<path d="M576.426 89L608.766 121H576.426V89Z" fill="#008C83"/>
<path d="M636.936 104L653.106 88H620.766L636.936 104Z" fill="#008C83"/>
<path d="M620.766 89L653.106 121H620.766V89Z" fill="#008C83"/>
<path d="M681.277 104L697.447 88H665.106L681.277 104Z" fill="#008C83"/>
<path d="M665.106 89L697.447 121H665.106V89Z" fill="#008C83"/>
<path d="M725.617 104L741.787 88H709.447L725.617 104Z" fill="#008C83"/>
<path d="M709.447 89L741.787 121H709.447V89Z" fill="#008C83"/>
<path d="M769.958 104L786.128 88H753.787L769.958 104Z" fill="#008C83"/>
<path d="M753.787 89L786.128 121H753.787V89Z" fill="#008C83"/>
<path d="M814.298 104L830.468 88H798.128L814.298 104Z" fill="#008C83"/>
<path d="M798.128 89L830.468 121H798.128V89Z" fill="#008C83"/>
<path d="M858.638 104L874.809 88H842.468L858.638 104Z" fill="#008C83"/>
<path d="M842.468 89L874.809 121H842.468V89Z" fill="#008C83"/>
<path d="M902.979 104L919.149 88H886.809L902.979 104Z" fill="#008C83"/>
<path d="M886.809 89L919.149 121H886.809V89Z" fill="#008C83"/>
<path d="M947.319 104L963.49 88H931.149L947.319 104Z" fill="#008C83"/>
<path d="M931.149 89L963.49 121H931.149V89Z" fill="#008C83"/>
<path d="M991.66 104L1007.83 88H975.49L991.66 104Z" fill="#008C83"/>
<path d="M975.49 89L1007.83 121H975.49V89Z" fill="#008C83"/>
<path d="M1036 104L1052.17 88H1019.83L1036 104Z" fill="#008C83"/>
<path d="M1019.83 89L1052.17 121H1019.83V89Z" fill="#008C83"/>
<path d="M1080.34 104L1096.51 88H1064.17L1080.34 104Z" fill="#008C83"/>
<path d="M1064.17 89L1096.51 121H1064.17V89Z" fill="#008C83"/>
<path d="M1124.68 104L1140.85 88H1108.51L1124.68 104Z" fill="#008C83"/>
<path d="M1108.51 89L1140.85 121H1108.51V89Z" fill="#008C83"/>
<path d="M1169.02 104L1185.19 88H1152.85L1169.02 104Z" fill="#008C83"/>
<path d="M1152.85 89L1185.19 121H1152.85V89Z" fill="#008C83"/>
<path d="M1213.36 104L1229.53 88H1197.19L1213.36 104Z" fill="#008C83"/>
<path d="M1197.19 89L1229.53 121H1197.19V89Z" fill="#008C83"/>
<path d="M1257.7 104L1273.87 88H1241.53L1257.7 104Z" fill="#008C83"/>
<path d="M1241.53 89L1273.87 121H1241.53V89Z" fill="#008C83"/>
<path d="M16.1702 148L32.3404 132H0L16.1702 148Z" fill="#008C83"/>
<path d="M0 133L32.3404 165H0V133Z" fill="#008C83"/>
<path d="M60.5106 148L76.6808 132H44.3404L60.5106 148Z" fill="#008C83"/>
<path d="M44.3404 133L76.6808 165H44.3404V133Z" fill="#008C83"/>
<path d="M104.851 148L121.021 132H88.6808L104.851 148Z" fill="#008C83"/>
<path d="M88.6808 133L121.021 165H88.6808V133Z" fill="#008C83"/>
<path d="M149.191 148L165.362 132H133.021L149.191 148Z" fill="#008C83"/>
<path d="M133.021 133L165.362 165H133.021V133Z" fill="#008C83"/>
<path d="M193.532 148L209.702 132H177.362L193.532 148Z" fill="#008C83"/>
<path d="M177.362 133L209.702 165H177.362V133Z" fill="#008C83"/>
<path d="M237.872 148L254.043 132H221.702L237.872 148Z" fill="#008C83"/>
<path d="M221.702 133L254.043 165H221.702V133Z" fill="#008C83"/>
<path d="M282.213 148L298.383 132H266.043L282.213 148Z" fill="#008C83"/>
<path d="M266.043 133L298.383 165H266.043V133Z" fill="#008C83"/>
<path d="M326.553 148L342.723 132H310.383L326.553 148Z" fill="#008C83"/>
<path d="M310.383 133L342.723 165H310.383V133Z" fill="#008C83"/>
<path d="M370.894 148L387.064 132H354.723L370.894 148Z" fill="#008C83"/>
<path d="M354.723 133L387.064 165H354.723V133Z" fill="#008C83"/>
<path d="M415.234 148L431.404 132H399.064L415.234 148Z" fill="#008C83"/>
<path d="M399.064 133L431.404 165H399.064V133Z" fill="#008C83"/>
<path d="M459.574 148L475.745 132H443.404L459.574 148Z" fill="#008C83"/>
<path d="M443.404 133L475.745 165H443.404V133Z" fill="#008C83"/>
<path d="M503.915 148L520.085 132H487.745L503.915 148Z" fill="#008C83"/>
<path d="M487.745 133L520.085 165H487.745V133Z" fill="#008C83"/>
<path d="M548.255 148L564.426 132H532.085L548.255 148Z" fill="#008C83"/>
<path d="M532.085 133L564.426 165H532.085V133Z" fill="#008C83"/>
<path d="M592.596 148L608.766 132H576.426L592.596 148Z" fill="#008C83"/>
<path d="M576.426 133L608.766 165H576.426V133Z" fill="#008C83"/>
<path d="M636.936 148L653.106 132H620.766L636.936 148Z" fill="#008C83"/>
<path d="M620.766 133L653.106 165H620.766V133Z" fill="#008C83"/>
<path d="M681.277 148L697.447 132H665.106L681.277 148Z" fill="#008C83"/>
<path d="M665.106 133L697.447 165H665.106V133Z" fill="#008C83"/>
<path d="M725.617 148L741.787 132H709.447L725.617 148Z" fill="#008C83"/>
<path d="M709.447 133L741.787 165H709.447V133Z" fill="#008C83"/>
<path d="M769.958 148L786.128 132H753.787L769.958 148Z" fill="#008C83"/>
<path d="M753.787 133L786.128 165H753.787V133Z" fill="#008C83"/>
<path d="M814.298 148L830.468 132H798.128L814.298 148Z" fill="#008C83"/>
<path d="M798.128 133L830.468 165H798.128V133Z" fill="#008C83"/>
<path d="M858.638 148L874.809 132H842.468L858.638 148Z" fill="#008C83"/>
<path d="M842.468 133L874.809 165H842.468V133Z" fill="#008C83"/>
<path d="M902.979 148L919.149 132H886.809L902.979 148Z" fill="#008C83"/>
<path d="M886.809 133L919.149 165H886.809V133Z" fill="#008C83"/>
<path d="M947.319 148L963.49 132H931.149L947.319 148Z" fill="#008C83"/>
<path d="M931.149 133L963.49 165H931.149V133Z" fill="#008C83"/>
<path d="M991.66 148L1007.83 132H975.49L991.66 148Z" fill="#008C83"/>
<path d="M975.49 133L1007.83 165H975.49V133Z" fill="#008C83"/>
<path d="M1036 148L1052.17 132H1019.83L1036 148Z" fill="#008C83"/>
<path d="M1019.83 133L1052.17 165H1019.83V133Z" fill="#008C83"/>
<path d="M1080.34 148L1096.51 132H1064.17L1080.34 148Z" fill="#008C83"/>
<path d="M1064.17 133L1096.51 165H1064.17V133Z" fill="#008C83"/>
<path d="M1124.68 148L1140.85 132H1108.51L1124.68 148Z" fill="#008C83"/>
<path d="M1108.51 133L1140.85 165H1108.51V133Z" fill="#008C83"/>
<path d="M1169.02 148L1185.19 132H1152.85L1169.02 148Z" fill="#008C83"/>
<path d="M1152.85 133L1185.19 165H1152.85V133Z" fill="#008C83"/>
<path d="M1213.36 148L1229.53 132H1197.19L1213.36 148Z" fill="#008C83"/>
<path d="M1197.19 133L1229.53 165H1197.19V133Z" fill="#008C83"/>
<path d="M1257.7 148L1273.87 132H1241.53L1257.7 148Z" fill="#008C83"/>
<path d="M1241.53 133L1273.87 165H1241.53V133Z" fill="#008C83"/>
<path d="M16.1702 192L32.3404 176H0L16.1702 192Z" fill="#008C83"/>
<path d="M0 177L32.3404 209H0V177Z" fill="#008C83"/>
<path d="M60.5106 192L76.6808 176H44.3404L60.5106 192Z" fill="#008C83"/>
<path d="M44.3404 177L76.6808 209H44.3404V177Z" fill="#008C83"/>
<path d="M104.851 192L121.021 176H88.6808L104.851 192Z" fill="#008C83"/>
<path d="M88.6808 177L121.021 209H88.6808V177Z" fill="#008C83"/>
<path d="M149.191 192L165.362 176H133.021L149.191 192Z" fill="#008C83"/>
<path d="M133.021 177L165.362 209H133.021V177Z" fill="#008C83"/>
<path d="M193.532 192L209.702 176H177.362L193.532 192Z" fill="#008C83"/>
<path d="M177.362 177L209.702 209H177.362V177Z" fill="#008C83"/>
<path d="M237.872 192L254.043 176H221.702L237.872 192Z" fill="#008C83"/>
<path d="M221.702 177L254.043 209H221.702V177Z" fill="#008C83"/>
<path d="M282.213 192L298.383 176H266.043L282.213 192Z" fill="#008C83"/>
<path d="M266.043 177L298.383 209H266.043V177Z" fill="#008C83"/>
<path d="M326.553 192L342.723 176H310.383L326.553 192Z" fill="#008C83"/>
<path d="M310.383 177L342.723 209H310.383V177Z" fill="#008C83"/>
<path d="M370.894 192L387.064 176H354.723L370.894 192Z" fill="#008C83"/>
<path d="M354.723 177L387.064 209H354.723V177Z" fill="#008C83"/>
<path d="M415.234 192L431.404 176H399.064L415.234 192Z" fill="#008C83"/>
<path d="M399.064 177L431.404 209H399.064V177Z" fill="#008C83"/>
<path d="M459.574 192L475.745 176H443.404L459.574 192Z" fill="#008C83"/>
<path d="M443.404 177L475.745 209H443.404V177Z" fill="#008C83"/>
<path d="M503.915 192L520.085 176H487.745L503.915 192Z" fill="#008C83"/>
<path d="M487.745 177L520.085 209H487.745V177Z" fill="#008C83"/>
<path d="M548.255 192L564.426 176H532.085L548.255 192Z" fill="#008C83"/>
<path d="M532.085 177L564.426 209H532.085V177Z" fill="#008C83"/>
<path d="M592.596 192L608.766 176H576.426L592.596 192Z" fill="#008C83"/>
<path d="M576.426 177L608.766 209H576.426V177Z" fill="#008C83"/>
<path d="M636.936 192L653.106 176H620.766L636.936 192Z" fill="#008C83"/>
<path d="M620.766 177L653.106 209H620.766V177Z" fill="#008C83"/>
<path d="M681.277 192L697.447 176H665.106L681.277 192Z" fill="#008C83"/>
<path d="M665.106 177L697.447 209H665.106V177Z" fill="#008C83"/>
<path d="M725.617 192L741.787 176H709.447L725.617 192Z" fill="#008C83"/>
<path d="M709.447 177L741.787 209H709.447V177Z" fill="#008C83"/>
<path d="M769.958 192L786.128 176H753.787L769.958 192Z" fill="#008C83"/>
<path d="M753.787 177L786.128 209H753.787V177Z" fill="#008C83"/>
<path d="M814.298 192L830.468 176H798.128L814.298 192Z" fill="#008C83"/>
<path d="M798.128 177L830.468 209H798.128V177Z" fill="#008C83"/>
<path d="M858.638 192L874.809 176H842.468L858.638 192Z" fill="#008C83"/>
<path d="M842.468 177L874.809 209H842.468V177Z" fill="#008C83"/>
<path d="M902.979 192L919.149 176H886.809L902.979 192Z" fill="#008C83"/>
<path d="M886.809 177L919.149 209H886.809V177Z" fill="#008C83"/>
<path d="M947.319 192L963.49 176H931.149L947.319 192Z" fill="#008C83"/>
<path d="M931.149 177L963.49 209H931.149V177Z" fill="#008C83"/>
<path d="M991.66 192L1007.83 176H975.49L991.66 192Z" fill="#008C83"/>
<path d="M975.49 177L1007.83 209H975.49V177Z" fill="#008C83"/>
<path d="M1036 192L1052.17 176H1019.83L1036 192Z" fill="#008C83"/>
<path d="M1019.83 177L1052.17 209H1019.83V177Z" fill="#008C83"/>
<path d="M1080.34 192L1096.51 176H1064.17L1080.34 192Z" fill="#008C83"/>
<path d="M1064.17 177L1096.51 209H1064.17V177Z" fill="#008C83"/>
<path d="M1124.68 192L1140.85 176H1108.51L1124.68 192Z" fill="#008C83"/>
<path d="M1108.51 177L1140.85 209H1108.51V177Z" fill="#008C83"/>
<path d="M1169.02 192L1185.19 176H1152.85L1169.02 192Z" fill="#008C83"/>
<path d="M1152.85 177L1185.19 209H1152.85V177Z" fill="#008C83"/>
<path d="M1213.36 192L1229.53 176H1197.19L1213.36 192Z" fill="#008C83"/>
<path d="M1197.19 177L1229.53 209H1197.19V177Z" fill="#008C83"/>
<path d="M1257.7 192L1273.87 176H1241.53L1257.7 192Z" fill="#008C83"/>
<path d="M1241.53 177L1273.87 209H1241.53V177Z" fill="#008C83"/>
<path d="M16.1702 236L32.3404 220H0L16.1702 236Z" fill="#008C83"/>
<path d="M0 221L32.3404 253H0V221Z" fill="#008C83"/>
<path d="M60.5106 236L76.6808 220H44.3404L60.5106 236Z" fill="#008C83"/>
<path d="M44.3404 221L76.6808 253H44.3404V221Z" fill="#008C83"/>
<path d="M104.851 236L121.021 220H88.6808L104.851 236Z" fill="#008C83"/>
<path d="M88.6808 221L121.021 253H88.6808V221Z" fill="#008C83"/>
<path d="M149.191 236L165.362 220H133.021L149.191 236Z" fill="#008C83"/>
<path d="M133.021 221L165.362 253H133.021V221Z" fill="#008C83"/>
<path d="M193.532 236L209.702 220H177.362L193.532 236Z" fill="#008C83"/>
<path d="M177.362 221L209.702 253H177.362V221Z" fill="#008C83"/>
<path d="M237.872 236L254.043 220H221.702L237.872 236Z" fill="#008C83"/>
<path d="M221.702 221L254.043 253H221.702V221Z" fill="#008C83"/>
<path d="M282.213 236L298.383 220H266.043L282.213 236Z" fill="#008C83"/>
<path d="M266.043 221L298.383 253H266.043V221Z" fill="#008C83"/>
<path d="M326.553 236L342.723 220H310.383L326.553 236Z" fill="#008C83"/>
<path d="M310.383 221L342.723 253H310.383V221Z" fill="#008C83"/>
<path d="M370.894 236L387.064 220H354.723L370.894 236Z" fill="#008C83"/>
<path d="M354.723 221L387.064 253H354.723V221Z" fill="#008C83"/>
<path d="M415.234 236L431.404 220H399.064L415.234 236Z" fill="#008C83"/>
<path d="M399.064 221L431.404 253H399.064V221Z" fill="#008C83"/>
<path d="M459.574 236L475.745 220H443.404L459.574 236Z" fill="#008C83"/>
<path d="M443.404 221L475.745 253H443.404V221Z" fill="#008C83"/>
<path d="M503.915 236L520.085 220H487.745L503.915 236Z" fill="#008C83"/>
<path d="M487.745 221L520.085 253H487.745V221Z" fill="#008C83"/>
<path d="M548.255 236L564.426 220H532.085L548.255 236Z" fill="#008C83"/>
<path d="M532.085 221L564.426 253H532.085V221Z" fill="#008C83"/>
<path d="M592.596 236L608.766 220H576.426L592.596 236Z" fill="#008C83"/>
<path d="M576.426 221L608.766 253H576.426V221Z" fill="#008C83"/>
<path d="M636.936 236L653.106 220H620.766L636.936 236Z" fill="#008C83"/>
<path d="M620.766 221L653.106 253H620.766V221Z" fill="#008C83"/>
<path d="M681.277 236L697.447 220H665.106L681.277 236Z" fill="#008C83"/>
<path d="M665.106 221L697.447 253H665.106V221Z" fill="#008C83"/>
<path d="M725.617 236L741.787 220H709.447L725.617 236Z" fill="#008C83"/>
<path d="M709.447 221L741.787 253H709.447V221Z" fill="#008C83"/>
<path d="M769.958 236L786.128 220H753.787L769.958 236Z" fill="#008C83"/>
<path d="M753.787 221L786.128 253H753.787V221Z" fill="#008C83"/>
<path d="M814.298 236L830.468 220H798.128L814.298 236Z" fill="#008C83"/>
<path d="M798.128 221L830.468 253H798.128V221Z" fill="#008C83"/>
<path d="M858.638 236L874.809 220H842.468L858.638 236Z" fill="#008C83"/>
<path d="M842.468 221L874.809 253H842.468V221Z" fill="#008C83"/>
<path d="M902.979 236L919.149 220H886.809L902.979 236Z" fill="#008C83"/>
<path d="M886.809 221L919.149 253H886.809V221Z" fill="#008C83"/>
<path d="M947.319 236L963.49 220H931.149L947.319 236Z" fill="#008C83"/>
<path d="M931.149 221L963.49 253H931.149V221Z" fill="#008C83"/>
<path d="M991.66 236L1007.83 220H975.49L991.66 236Z" fill="#008C83"/>
<path d="M975.49 221L1007.83 253H975.49V221Z" fill="#008C83"/>
<path d="M1036 236L1052.17 220H1019.83L1036 236Z" fill="#008C83"/>
<path d="M1019.83 221L1052.17 253H1019.83V221Z" fill="#008C83"/>
<path d="M1080.34 236L1096.51 220H1064.17L1080.34 236Z" fill="#008C83"/>
<path d="M1064.17 221L1096.51 253H1064.17V221Z" fill="#008C83"/>
<path d="M1124.68 236L1140.85 220H1108.51L1124.68 236Z" fill="#008C83"/>
<path d="M1108.51 221L1140.85 253H1108.51V221Z" fill="#008C83"/>
<path d="M1169.02 236L1185.19 220H1152.85L1169.02 236Z" fill="#008C83"/>
<path d="M1152.85 221L1185.19 253H1152.85V221Z" fill="#008C83"/>
<path d="M1213.36 236L1229.53 220H1197.19L1213.36 236Z" fill="#008C83"/>
<path d="M1197.19 221L1229.53 253H1197.19V221Z" fill="#008C83"/>
<path d="M1257.7 236L1273.87 220H1241.53L1257.7 236Z" fill="#008C83"/>
<path d="M1241.53 221L1273.87 253H1241.53V221Z" fill="#008C83"/>
<path d="M16.1702 280L32.3404 264H0L16.1702 280Z" fill="#008C83"/>
<path d="M0 265L32.3404 297H0V265Z" fill="#008C83"/>
<path d="M60.5106 280L76.6808 264H44.3404L60.5106 280Z" fill="#008C83"/>
<path d="M44.3404 265L76.6808 297H44.3404V265Z" fill="#008C83"/>
<path d="M104.851 280L121.021 264H88.6808L104.851 280Z" fill="#008C83"/>
<path d="M88.6808 265L121.021 297H88.6808V265Z" fill="#008C83"/>
<path d="M149.191 280L165.362 264H133.021L149.191 280Z" fill="#008C83"/>
<path d="M133.021 265L165.362 297H133.021V265Z" fill="#008C83"/>
<path d="M193.532 280L209.702 264H177.362L193.532 280Z" fill="#008C83"/>
<path d="M177.362 265L209.702 297H177.362V265Z" fill="#008C83"/>
<path d="M237.872 280L254.043 264H221.702L237.872 280Z" fill="#008C83"/>
<path d="M221.702 265L254.043 297H221.702V265Z" fill="#008C83"/>
<path d="M282.213 280L298.383 264H266.043L282.213 280Z" fill="#008C83"/>
<path d="M266.043 265L298.383 297H266.043V265Z" fill="#008C83"/>
<path d="M326.553 280L342.723 264H310.383L326.553 280Z" fill="#008C83"/>
<path d="M310.383 265L342.723 297H310.383V265Z" fill="#008C83"/>
<path d="M370.894 280L387.064 264H354.723L370.894 280Z" fill="#008C83"/>
<path d="M354.723 265L387.064 297H354.723V265Z" fill="#008C83"/>
<path d="M415.234 280L431.404 264H399.064L415.234 280Z" fill="#008C83"/>
<path d="M399.064 265L431.404 297H399.064V265Z" fill="#008C83"/>
<path d="M459.574 280L475.745 264H443.404L459.574 280Z" fill="#008C83"/>
<path d="M443.404 265L475.745 297H443.404V265Z" fill="#008C83"/>
<path d="M503.915 280L520.085 264H487.745L503.915 280Z" fill="#008C83"/>
<path d="M487.745 265L520.085 297H487.745V265Z" fill="#008C83"/>
<path d="M548.255 280L564.426 264H532.085L548.255 280Z" fill="#008C83"/>
<path d="M532.085 265L564.426 297H532.085V265Z" fill="#008C83"/>
<path d="M592.596 280L608.766 264H576.426L592.596 280Z" fill="#008C83"/>
<path d="M576.426 265L608.766 297H576.426V265Z" fill="#008C83"/>
<path d="M636.936 280L653.106 264H620.766L636.936 280Z" fill="#008C83"/>
<path d="M620.766 265L653.106 297H620.766V265Z" fill="#008C83"/>
<path d="M681.277 280L697.447 264H665.106L681.277 280Z" fill="#008C83"/>
<path d="M665.106 265L697.447 297H665.106V265Z" fill="#008C83"/>
<path d="M725.617 280L741.787 264H709.447L725.617 280Z" fill="#008C83"/>
<path d="M709.447 265L741.787 297H709.447V265Z" fill="#008C83"/>
<path d="M769.958 280L786.128 264H753.787L769.958 280Z" fill="#008C83"/>
<path d="M753.787 265L786.128 297H753.787V265Z" fill="#008C83"/>
<path d="M814.298 280L830.468 264H798.128L814.298 280Z" fill="#008C83"/>
<path d="M798.128 265L830.468 297H798.128V265Z" fill="#008C83"/>
<path d="M858.638 280L874.809 264H842.468L858.638 280Z" fill="#008C83"/>
<path d="M842.468 265L874.809 297H842.468V265Z" fill="#008C83"/>
<path d="M902.979 280L919.149 264H886.809L902.979 280Z" fill="#008C83"/>
<path d="M886.809 265L919.149 297H886.809V265Z" fill="#008C83"/>
<path d="M947.319 280L963.49 264H931.149L947.319 280Z" fill="#008C83"/>
<path d="M931.149 265L963.49 297H931.149V265Z" fill="#008C83"/>
<path d="M991.66 280L1007.83 264H975.49L991.66 280Z" fill="#008C83"/>
<path d="M975.49 265L1007.83 297H975.49V265Z" fill="#008C83"/>
<path d="M1036 280L1052.17 264H1019.83L1036 280Z" fill="#008C83"/>
<path d="M1019.83 265L1052.17 297H1019.83V265Z" fill="#008C83"/>
<path d="M1080.34 280L1096.51 264H1064.17L1080.34 280Z" fill="#008C83"/>
<path d="M1064.17 265L1096.51 297H1064.17V265Z" fill="#008C83"/>
<path d="M1124.68 280L1140.85 264H1108.51L1124.68 280Z" fill="#008C83"/>
<path d="M1108.51 265L1140.85 297H1108.51V265Z" fill="#008C83"/>
<path d="M1169.02 280L1185.19 264H1152.85L1169.02 280Z" fill="#008C83"/>
<path d="M1152.85 265L1185.19 297H1152.85V265Z" fill="#008C83"/>
<path d="M1213.36 280L1229.53 264H1197.19L1213.36 280Z" fill="#008C83"/>
<path d="M1197.19 265L1229.53 297H1197.19V265Z" fill="#008C83"/>
<path d="M1257.7 280L1273.87 264H1241.53L1257.7 280Z" fill="#008C83"/>
<path d="M1241.53 265L1273.87 297H1241.53V265Z" fill="#008C83"/>
<path d="M16.1702 324L32.3404 308H0L16.1702 324Z" fill="#008C83"/>
<path d="M0 309L32.3404 341H0V309Z" fill="#008C83"/>
<path d="M60.5106 324L76.6808 308H44.3404L60.5106 324Z" fill="#008C83"/>
<path d="M44.3404 309L76.6808 341H44.3404V309Z" fill="#008C83"/>
<path d="M104.851 324L121.021 308H88.6808L104.851 324Z" fill="#008C83"/>
<path d="M88.6808 309L121.021 341H88.6808V309Z" fill="#008C83"/>
<path d="M149.191 324L165.362 308H133.021L149.191 324Z" fill="#008C83"/>
<path d="M133.021 309L165.362 341H133.021V309Z" fill="#008C83"/>
<path d="M193.532 324L209.702 308H177.362L193.532 324Z" fill="#008C83"/>
<path d="M177.362 309L209.702 341H177.362V309Z" fill="#008C83"/>
<path d="M237.872 324L254.043 308H221.702L237.872 324Z" fill="#008C83"/>
<path d="M221.702 309L254.043 341H221.702V309Z" fill="#008C83"/>
<path d="M282.213 324L298.383 308H266.043L282.213 324Z" fill="#008C83"/>
<path d="M266.043 309L298.383 341H266.043V309Z" fill="#008C83"/>
<path d="M326.553 324L342.723 308H310.383L326.553 324Z" fill="#008C83"/>
<path d="M310.383 309L342.723 341H310.383V309Z" fill="#008C83"/>
<path d="M370.894 324L387.064 308H354.723L370.894 324Z" fill="#008C83"/>
<path d="M354.723 309L387.064 341H354.723V309Z" fill="#008C83"/>
<path d="M415.234 324L431.404 308H399.064L415.234 324Z" fill="#008C83"/>
<path d="M399.064 309L431.404 341H399.064V309Z" fill="#008C83"/>
<path d="M459.574 324L475.745 308H443.404L459.574 324Z" fill="#008C83"/>
<path d="M443.404 309L475.745 341H443.404V309Z" fill="#008C83"/>
<path d="M503.915 324L520.085 308H487.745L503.915 324Z" fill="#008C83"/>
<path d="M487.745 309L520.085 341H487.745V309Z" fill="#008C83"/>
<path d="M548.255 324L564.426 308H532.085L548.255 324Z" fill="#008C83"/>
<path d="M532.085 309L564.426 341H532.085V309Z" fill="#008C83"/>
<path d="M592.596 324L608.766 308H576.426L592.596 324Z" fill="#008C83"/>
<path d="M576.426 309L608.766 341H576.426V309Z" fill="#008C83"/>
<path d="M636.936 324L653.106 308H620.766L636.936 324Z" fill="#008C83"/>
<path d="M620.766 309L653.106 341H620.766V309Z" fill="#008C83"/>
<path d="M681.277 324L697.447 308H665.106L681.277 324Z" fill="#008C83"/>
<path d="M665.106 309L697.447 341H665.106V309Z" fill="#008C83"/>
<path d="M725.617 324L741.787 308H709.447L725.617 324Z" fill="#008C83"/>
<path d="M709.447 309L741.787 341H709.447V309Z" fill="#008C83"/>
<path d="M769.958 324L786.128 308H753.787L769.958 324Z" fill="#008C83"/>
<path d="M753.787 309L786.128 341H753.787V309Z" fill="#008C83"/>
<path d="M814.298 324L830.468 308H798.128L814.298 324Z" fill="#008C83"/>
<path d="M798.128 309L830.468 341H798.128V309Z" fill="#008C83"/>
<path d="M858.638 324L874.809 308H842.468L858.638 324Z" fill="#008C83"/>
<path d="M842.468 309L874.809 341H842.468V309Z" fill="#008C83"/>
<path d="M902.979 324L919.149 308H886.809L902.979 324Z" fill="#008C83"/>
<path d="M886.809 309L919.149 341H886.809V309Z" fill="#008C83"/>
<path d="M947.319 324L963.49 308H931.149L947.319 324Z" fill="#008C83"/>
<path d="M931.149 309L963.49 341H931.149V309Z" fill="#008C83"/>
<path d="M991.66 324L1007.83 308H975.49L991.66 324Z" fill="#008C83"/>
<path d="M975.49 309L1007.83 341H975.49V309Z" fill="#008C83"/>
<path d="M1036 324L1052.17 308H1019.83L1036 324Z" fill="#008C83"/>
<path d="M1019.83 309L1052.17 341H1019.83V309Z" fill="#008C83"/>
<path d="M1080.34 324L1096.51 308H1064.17L1080.34 324Z" fill="#008C83"/>
<path d="M1064.17 309L1096.51 341H1064.17V309Z" fill="#008C83"/>
<path d="M1124.68 324L1140.85 308H1108.51L1124.68 324Z" fill="#008C83"/>
<path d="M1108.51 309L1140.85 341H1108.51V309Z" fill="#008C83"/>
<path d="M1169.02 324L1185.19 308H1152.85L1169.02 324Z" fill="#008C83"/>
<path d="M1152.85 309L1185.19 341H1152.85V309Z" fill="#008C83"/>
<path d="M1213.36 324L1229.53 308H1197.19L1213.36 324Z" fill="#008C83"/>
<path d="M1197.19 309L1229.53 341H1197.19V309Z" fill="#008C83"/>
<path d="M1257.7 324L1273.87 308H1241.53L1257.7 324Z" fill="#008C83"/>
<path d="M1241.53 309L1273.87 341H1241.53V309Z" fill="#008C83"/>
<path d="M16.1702 368L32.3404 352H0L16.1702 368Z" fill="#008C83"/>
<path d="M0 353L32.3404 385H0V353Z" fill="#008C83"/>
<path d="M60.5106 368L76.6808 352H44.3404L60.5106 368Z" fill="#008C83"/>
<path d="M44.3404 353L76.6808 385H44.3404V353Z" fill="#008C83"/>
<path d="M104.851 368L121.021 352H88.6808L104.851 368Z" fill="#008C83"/>
<path d="M88.6808 353L121.021 385H88.6808V353Z" fill="#008C83"/>
<path d="M149.191 368L165.362 352H133.021L149.191 368Z" fill="#008C83"/>
<path d="M133.021 353L165.362 385H133.021V353Z" fill="#008C83"/>
<path d="M193.532 368L209.702 352H177.362L193.532 368Z" fill="#008C83"/>
<path d="M177.362 353L209.702 385H177.362V353Z" fill="#008C83"/>
<path d="M237.872 368L254.043 352H221.702L237.872 368Z" fill="#008C83"/>
<path d="M221.702 353L254.043 385H221.702V353Z" fill="#008C83"/>
<path d="M282.213 368L298.383 352H266.043L282.213 368Z" fill="#008C83"/>
<path d="M266.043 353L298.383 385H266.043V353Z" fill="#008C83"/>
<path d="M326.553 368L342.723 352H310.383L326.553 368Z" fill="#008C83"/>
<path d="M310.383 353L342.723 385H310.383V353Z" fill="#008C83"/>
<path d="M370.894 368L387.064 352H354.723L370.894 368Z" fill="#008C83"/>
<path d="M354.723 353L387.064 385H354.723V353Z" fill="#008C83"/>
<path d="M415.234 368L431.404 352H399.064L415.234 368Z" fill="#008C83"/>
<path d="M399.064 353L431.404 385H399.064V353Z" fill="#008C83"/>
<path d="M459.574 368L475.745 352H443.404L459.574 368Z" fill="#008C83"/>
<path d="M443.404 353L475.745 385H443.404V353Z" fill="#008C83"/>
<path d="M503.915 368L520.085 352H487.745L503.915 368Z" fill="#008C83"/>
<path d="M487.745 353L520.085 385H487.745V353Z" fill="#008C83"/>
<path d="M548.255 368L564.426 352H532.085L548.255 368Z" fill="#008C83"/>
<path d="M532.085 353L564.426 385H532.085V353Z" fill="#008C83"/>
<path d="M592.596 368L608.766 352H576.426L592.596 368Z" fill="#008C83"/>
<path d="M576.426 353L608.766 385H576.426V353Z" fill="#008C83"/>
<path d="M636.936 368L653.106 352H620.766L636.936 368Z" fill="#008C83"/>
<path d="M620.766 353L653.106 385H620.766V353Z" fill="#008C83"/>
<path d="M681.277 368L697.447 352H665.106L681.277 368Z" fill="#008C83"/>
<path d="M665.106 353L697.447 385H665.106V353Z" fill="#008C83"/>
<path d="M725.617 368L741.787 352H709.447L725.617 368Z" fill="#008C83"/>
<path d="M709.447 353L741.787 385H709.447V353Z" fill="#008C83"/>
<path d="M769.958 368L786.128 352H753.787L769.958 368Z" fill="#008C83"/>
<path d="M753.787 353L786.128 385H753.787V353Z" fill="#008C83"/>
<path d="M814.298 368L830.468 352H798.128L814.298 368Z" fill="#008C83"/>
<path d="M798.128 353L830.468 385H798.128V353Z" fill="#008C83"/>
<path d="M858.638 368L874.809 352H842.468L858.638 368Z" fill="#008C83"/>
<path d="M842.468 353L874.809 385H842.468V353Z" fill="#008C83"/>
<path d="M902.979 368L919.149 352H886.809L902.979 368Z" fill="#008C83"/>
<path d="M886.809 353L919.149 385H886.809V353Z" fill="#008C83"/>
<path d="M947.319 368L963.49 352H931.149L947.319 368Z" fill="#008C83"/>
<path d="M931.149 353L963.49 385H931.149V353Z" fill="#008C83"/>
<path d="M991.66 368L1007.83 352H975.49L991.66 368Z" fill="#008C83"/>
<path d="M975.49 353L1007.83 385H975.49V353Z" fill="#008C83"/>
<path d="M1036 368L1052.17 352H1019.83L1036 368Z" fill="#008C83"/>
<path d="M1019.83 353L1052.17 385H1019.83V353Z" fill="#008C83"/>
<path d="M1080.34 368L1096.51 352H1064.17L1080.34 368Z" fill="#008C83"/>
<path d="M1064.17 353L1096.51 385H1064.17V353Z" fill="#008C83"/>
<path d="M1124.68 368L1140.85 352H1108.51L1124.68 368Z" fill="#008C83"/>
<path d="M1108.51 353L1140.85 385H1108.51V353Z" fill="#008C83"/>
<path d="M1169.02 368L1185.19 352H1152.85L1169.02 368Z" fill="#008C83"/>
<path d="M1152.85 353L1185.19 385H1152.85V353Z" fill="#008C83"/>
<path d="M1213.36 368L1229.53 352H1197.19L1213.36 368Z" fill="#008C83"/>
<path d="M1197.19 353L1229.53 385H1197.19V353Z" fill="#008C83"/>
<path d="M1257.7 368L1273.87 352H1241.53L1257.7 368Z" fill="#008C83"/>
<path d="M1241.53 353L1273.87 385H1241.53V353Z" fill="#008C83"/>
<path d="M16.1702 412L32.3404 396H0L16.1702 412Z" fill="#008C83"/>
<path d="M0 397L32.3404 429H0V397Z" fill="#008C83"/>
<path d="M60.5106 412L76.6808 396H44.3404L60.5106 412Z" fill="#008C83"/>
<path d="M44.3404 397L76.6808 429H44.3404V397Z" fill="#008C83"/>
<path d="M104.851 412L121.021 396H88.6808L104.851 412Z" fill="#008C83"/>
<path d="M88.6808 397L121.021 429H88.6808V397Z" fill="#008C83"/>
<path d="M149.191 412L165.362 396H133.021L149.191 412Z" fill="#008C83"/>
<path d="M133.021 397L165.362 429H133.021V397Z" fill="#008C83"/>
<path d="M193.532 412L209.702 396H177.362L193.532 412Z" fill="#008C83"/>
<path d="M177.362 397L209.702 429H177.362V397Z" fill="#008C83"/>
<path d="M237.872 412L254.043 396H221.702L237.872 412Z" fill="#008C83"/>
<path d="M221.702 397L254.043 429H221.702V397Z" fill="#008C83"/>
<path d="M282.213 412L298.383 396H266.043L282.213 412Z" fill="#008C83"/>
<path d="M266.043 397L298.383 429H266.043V397Z" fill="#008C83"/>
<path d="M326.553 412L342.723 396H310.383L326.553 412Z" fill="#008C83"/>
<path d="M310.383 397L342.723 429H310.383V397Z" fill="#008C83"/>
<path d="M370.894 412L387.064 396H354.723L370.894 412Z" fill="#008C83"/>
<path d="M354.723 397L387.064 429H354.723V397Z" fill="#008C83"/>
<path d="M415.234 412L431.404 396H399.064L415.234 412Z" fill="#008C83"/>
<path d="M399.064 397L431.404 429H399.064V397Z" fill="#008C83"/>
<path d="M459.574 412L475.745 396H443.404L459.574 412Z" fill="#008C83"/>
<path d="M443.404 397L475.745 429H443.404V397Z" fill="#008C83"/>
<path d="M503.915 412L520.085 396H487.745L503.915 412Z" fill="#008C83"/>
<path d="M487.745 397L520.085 429H487.745V397Z" fill="#008C83"/>
<path d="M548.255 412L564.426 396H532.085L548.255 412Z" fill="#008C83"/>
<path d="M532.085 397L564.426 429H532.085V397Z" fill="#008C83"/>
<path d="M592.596 412L608.766 396H576.426L592.596 412Z" fill="#008C83"/>
<path d="M576.426 397L608.766 429H576.426V397Z" fill="#008C83"/>
<path d="M636.936 412L653.106 396H620.766L636.936 412Z" fill="#008C83"/>
<path d="M620.766 397L653.106 429H620.766V397Z" fill="#008C83"/>
<path d="M681.277 412L697.447 396H665.106L681.277 412Z" fill="#008C83"/>
<path d="M665.106 397L697.447 429H665.106V397Z" fill="#008C83"/>
<path d="M725.617 412L741.787 396H709.447L725.617 412Z" fill="#008C83"/>
<path d="M709.447 397L741.787 429H709.447V397Z" fill="#008C83"/>
<path d="M769.958 412L786.128 396H753.787L769.958 412Z" fill="#008C83"/>
<path d="M753.787 397L786.128 429H753.787V397Z" fill="#008C83"/>
<path d="M814.298 412L830.468 396H798.128L814.298 412Z" fill="#008C83"/>
<path d="M798.128 397L830.468 429H798.128V397Z" fill="#008C83"/>
<path d="M858.638 412L874.809 396H842.468L858.638 412Z" fill="#008C83"/>
<path d="M842.468 397L874.809 429H842.468V397Z" fill="#008C83"/>
<path d="M902.979 412L919.149 396H886.809L902.979 412Z" fill="#008C83"/>
<path d="M886.809 397L919.149 429H886.809V397Z" fill="#008C83"/>
<path d="M947.319 412L963.49 396H931.149L947.319 412Z" fill="#008C83"/>
<path d="M931.149 397L963.49 429H931.149V397Z" fill="#008C83"/>
<path d="M991.66 412L1007.83 396H975.49L991.66 412Z" fill="#008C83"/>
<path d="M975.49 397L1007.83 429H975.49V397Z" fill="#008C83"/>
<path d="M1036 412L1052.17 396H1019.83L1036 412Z" fill="#008C83"/>
<path d="M1019.83 397L1052.17 429H1019.83V397Z" fill="#008C83"/>
<path d="M1080.34 412L1096.51 396H1064.17L1080.34 412Z" fill="#008C83"/>
<path d="M1064.17 397L1096.51 429H1064.17V397Z" fill="#008C83"/>
<path d="M1124.68 412L1140.85 396H1108.51L1124.68 412Z" fill="#008C83"/>
<path d="M1108.51 397L1140.85 429H1108.51V397Z" fill="#008C83"/>
<path d="M1169.02 412L1185.19 396H1152.85L1169.02 412Z" fill="#008C83"/>
<path d="M1152.85 397L1185.19 429H1152.85V397Z" fill="#008C83"/>
<path d="M1213.36 412L1229.53 396H1197.19L1213.36 412Z" fill="#008C83"/>
<path d="M1197.19 397L1229.53 429H1197.19V397Z" fill="#008C83"/>
<path d="M1257.7 412L1273.87 396H1241.53L1257.7 412Z" fill="#008C83"/>
<path d="M1241.53 397L1273.87 429H1241.53V397Z" fill="#008C83"/>
<path d="M16.1702 456L32.3404 440H0L16.1702 456Z" fill="#008C83"/>
<path d="M0 441L32.3404 473H0V441Z" fill="#008C83"/>
<path d="M60.5106 456L76.6808 440H44.3404L60.5106 456Z" fill="#008C83"/>
<path d="M44.3404 441L76.6808 473H44.3404V441Z" fill="#008C83"/>
<path d="M104.851 456L121.021 440H88.6808L104.851 456Z" fill="#008C83"/>
<path d="M88.6808 441L121.021 473H88.6808V441Z" fill="#008C83"/>
<path d="M149.191 456L165.362 440H133.021L149.191 456Z" fill="#008C83"/>
<path d="M133.021 441L165.362 473H133.021V441Z" fill="#008C83"/>
<path d="M193.532 456L209.702 440H177.362L193.532 456Z" fill="#008C83"/>
<path d="M177.362 441L209.702 473H177.362V441Z" fill="#008C83"/>
<path d="M237.872 456L254.043 440H221.702L237.872 456Z" fill="#008C83"/>
<path d="M221.702 441L254.043 473H221.702V441Z" fill="#008C83"/>
<path d="M282.213 456L298.383 440H266.043L282.213 456Z" fill="#008C83"/>
<path d="M266.043 441L298.383 473H266.043V441Z" fill="#008C83"/>
<path d="M326.553 456L342.723 440H310.383L326.553 456Z" fill="#008C83"/>
<path d="M310.383 441L342.723 473H310.383V441Z" fill="#008C83"/>
<path d="M370.894 456L387.064 440H354.723L370.894 456Z" fill="#008C83"/>
<path d="M354.723 441L387.064 473H354.723V441Z" fill="#008C83"/>
<path d="M415.234 456L431.404 440H399.064L415.234 456Z" fill="#008C83"/>
<path d="M399.064 441L431.404 473H399.064V441Z" fill="#008C83"/>
<path d="M459.574 456L475.745 440H443.404L459.574 456Z" fill="#008C83"/>
<path d="M443.404 441L475.745 473H443.404V441Z" fill="#008C83"/>
<path d="M503.915 456L520.085 440H487.745L503.915 456Z" fill="#008C83"/>
<path d="M487.745 441L520.085 473H487.745V441Z" fill="#008C83"/>
<path d="M548.255 456L564.426 440H532.085L548.255 456Z" fill="#008C83"/>
<path d="M532.085 441L564.426 473H532.085V441Z" fill="#008C83"/>
<path d="M592.596 456L608.766 440H576.426L592.596 456Z" fill="#008C83"/>
<path d="M576.426 441L608.766 473H576.426V441Z" fill="#008C83"/>
<path d="M636.936 456L653.106 440H620.766L636.936 456Z" fill="#008C83"/>
<path d="M620.766 441L653.106 473H620.766V441Z" fill="#008C83"/>
<path d="M681.277 456L697.447 440H665.106L681.277 456Z" fill="#008C83"/>
<path d="M665.106 441L697.447 473H665.106V441Z" fill="#008C83"/>
<path d="M725.617 456L741.787 440H709.447L725.617 456Z" fill="#008C83"/>
<path d="M709.447 441L741.787 473H709.447V441Z" fill="#008C83"/>
<path d="M769.958 456L786.128 440H753.787L769.958 456Z" fill="#008C83"/>
<path d="M753.787 441L786.128 473H753.787V441Z" fill="#008C83"/>
<path d="M814.298 456L830.468 440H798.128L814.298 456Z" fill="#008C83"/>
<path d="M798.128 441L830.468 473H798.128V441Z" fill="#008C83"/>
<path d="M858.638 456L874.809 440H842.468L858.638 456Z" fill="#008C83"/>
<path d="M842.468 441L874.809 473H842.468V441Z" fill="#008C83"/>
<path d="M902.979 456L919.149 440H886.809L902.979 456Z" fill="#008C83"/>
<path d="M886.809 441L919.149 473H886.809V441Z" fill="#008C83"/>
<path d="M947.319 456L963.49 440H931.149L947.319 456Z" fill="#008C83"/>
<path d="M931.149 441L963.49 473H931.149V441Z" fill="#008C83"/>
<path d="M991.66 456L1007.83 440H975.49L991.66 456Z" fill="#008C83"/>
<path d="M975.49 441L1007.83 473H975.49V441Z" fill="#008C83"/>
<path d="M1036 456L1052.17 440H1019.83L1036 456Z" fill="#008C83"/>
<path d="M1019.83 441L1052.17 473H1019.83V441Z" fill="#008C83"/>
<path d="M1080.34 456L1096.51 440H1064.17L1080.34 456Z" fill="#008C83"/>
<path d="M1064.17 441L1096.51 473H1064.17V441Z" fill="#008C83"/>
<path d="M1124.68 456L1140.85 440H1108.51L1124.68 456Z" fill="#008C83"/>
<path d="M1108.51 441L1140.85 473H1108.51V441Z" fill="#008C83"/>
<path d="M1169.02 456L1185.19 440H1152.85L1169.02 456Z" fill="#008C83"/>
<path d="M1152.85 441L1185.19 473H1152.85V441Z" fill="#008C83"/>
<path d="M1213.36 456L1229.53 440H1197.19L1213.36 456Z" fill="#008C83"/>
<path d="M1197.19 441L1229.53 473H1197.19V441Z" fill="#008C83"/>
<path d="M1257.7 456L1273.87 440H1241.53L1257.7 456Z" fill="#008C83"/>
<path d="M1241.53 441L1273.87 473H1241.53V441Z" fill="#008C83"/>
<path d="M16.1702 500L32.3404 484H0L16.1702 500Z" fill="#008C83"/>
<path d="M0 485L32.3404 517H0V485Z" fill="#008C83"/>
<path d="M60.5106 500L76.6808 484H44.3404L60.5106 500Z" fill="#008C83"/>
<path d="M44.3404 485L76.6808 517H44.3404V485Z" fill="#008C83"/>
<path d="M104.851 500L121.021 484H88.6808L104.851 500Z" fill="#008C83"/>
<path d="M88.6808 485L121.021 517H88.6808V485Z" fill="#008C83"/>
<path d="M149.191 500L165.362 484H133.021L149.191 500Z" fill="#008C83"/>
<path d="M133.021 485L165.362 517H133.021V485Z" fill="#008C83"/>
<path d="M193.532 500L209.702 484H177.362L193.532 500Z" fill="#008C83"/>
<path d="M177.362 485L209.702 517H177.362V485Z" fill="#008C83"/>
<path d="M237.872 500L254.043 484H221.702L237.872 500Z" fill="#008C83"/>
<path d="M221.702 485L254.043 517H221.702V485Z" fill="#008C83"/>
<path d="M282.213 500L298.383 484H266.043L282.213 500Z" fill="#008C83"/>
<path d="M266.043 485L298.383 517H266.043V485Z" fill="#008C83"/>
<path d="M326.553 500L342.723 484H310.383L326.553 500Z" fill="#008C83"/>
<path d="M310.383 485L342.723 517H310.383V485Z" fill="#008C83"/>
<path d="M370.894 500L387.064 484H354.723L370.894 500Z" fill="#008C83"/>
<path d="M354.723 485L387.064 517H354.723V485Z" fill="#008C83"/>
<path d="M415.234 500L431.404 484H399.064L415.234 500Z" fill="#008C83"/>
<path d="M399.064 485L431.404 517H399.064V485Z" fill="#008C83"/>
<path d="M459.574 500L475.745 484H443.404L459.574 500Z" fill="#008C83"/>
<path d="M443.404 485L475.745 517H443.404V485Z" fill="#008C83"/>
<path d="M503.915 500L520.085 484H487.745L503.915 500Z" fill="#008C83"/>
<path d="M487.745 485L520.085 517H487.745V485Z" fill="#008C83"/>
<path d="M548.255 500L564.426 484H532.085L548.255 500Z" fill="#008C83"/>
<path d="M532.085 485L564.426 517H532.085V485Z" fill="#008C83"/>
<path d="M592.596 500L608.766 484H576.426L592.596 500Z" fill="#008C83"/>
<path d="M576.426 485L608.766 517H576.426V485Z" fill="#008C83"/>
<path d="M636.936 500L653.106 484H620.766L636.936 500Z" fill="#008C83"/>
<path d="M620.766 485L653.106 517H620.766V485Z" fill="#008C83"/>
<path d="M681.277 500L697.447 484H665.106L681.277 500Z" fill="#008C83"/>
<path d="M665.106 485L697.447 517H665.106V485Z" fill="#008C83"/>
<path d="M725.617 500L741.787 484H709.447L725.617 500Z" fill="#008C83"/>
<path d="M709.447 485L741.787 517H709.447V485Z" fill="#008C83"/>
<path d="M769.958 500L786.128 484H753.787L769.958 500Z" fill="#008C83"/>
<path d="M753.787 485L786.128 517H753.787V485Z" fill="#008C83"/>
<path d="M814.298 500L830.468 484H798.128L814.298 500Z" fill="#008C83"/>
<path d="M798.128 485L830.468 517H798.128V485Z" fill="#008C83"/>
<path d="M858.638 500L874.809 484H842.468L858.638 500Z" fill="#008C83"/>
<path d="M842.468 485L874.809 517H842.468V485Z" fill="#008C83"/>
<path d="M902.979 500L919.149 484H886.809L902.979 500Z" fill="#008C83"/>
<path d="M886.809 485L919.149 517H886.809V485Z" fill="#008C83"/>
<path d="M947.319 500L963.49 484H931.149L947.319 500Z" fill="#008C83"/>
<path d="M931.149 485L963.49 517H931.149V485Z" fill="#008C83"/>
<path d="M991.66 500L1007.83 484H975.49L991.66 500Z" fill="#008C83"/>
<path d="M975.49 485L1007.83 517H975.49V485Z" fill="#008C83"/>
<path d="M1036 500L1052.17 484H1019.83L1036 500Z" fill="#008C83"/>
<path d="M1019.83 485L1052.17 517H1019.83V485Z" fill="#008C83"/>
<path d="M1080.34 500L1096.51 484H1064.17L1080.34 500Z" fill="#008C83"/>
<path d="M1064.17 485L1096.51 517H1064.17V485Z" fill="#008C83"/>
<path d="M1124.68 500L1140.85 484H1108.51L1124.68 500Z" fill="#008C83"/>
<path d="M1108.51 485L1140.85 517H1108.51V485Z" fill="#008C83"/>
<path d="M1169.02 500L1185.19 484H1152.85L1169.02 500Z" fill="#008C83"/>
<path d="M1152.85 485L1185.19 517H1152.85V485Z" fill="#008C83"/>
<path d="M1213.36 500L1229.53 484H1197.19L1213.36 500Z" fill="#008C83"/>
<path d="M1197.19 485L1229.53 517H1197.19V485Z" fill="#008C83"/>
<path d="M1257.7 500L1273.87 484H1241.53L1257.7 500Z" fill="#008C83"/>
<path d="M1241.53 485L1273.87 517H1241.53V485Z" fill="#008C83"/>
<path d="M16.1702 544L32.3404 528H0L16.1702 544Z" fill="#008C83"/>
<path d="M0 529L32.3404 561H0V529Z" fill="#008C83"/>
<path d="M60.5106 544L76.6808 528H44.3404L60.5106 544Z" fill="#008C83"/>
<path d="M44.3404 529L76.6808 561H44.3404V529Z" fill="#008C83"/>
<path d="M104.851 544L121.021 528H88.6808L104.851 544Z" fill="#008C83"/>
<path d="M88.6808 529L121.021 561H88.6808V529Z" fill="#008C83"/>
<path d="M149.191 544L165.362 528H133.021L149.191 544Z" fill="#008C83"/>
<path d="M133.021 529L165.362 561H133.021V529Z" fill="#008C83"/>
<path d="M193.532 544L209.702 528H177.362L193.532 544Z" fill="#008C83"/>
<path d="M177.362 529L209.702 561H177.362V529Z" fill="#008C83"/>
<path d="M237.872 544L254.043 528H221.702L237.872 544Z" fill="#008C83"/>
<path d="M221.702 529L254.043 561H221.702V529Z" fill="#008C83"/>
<path d="M282.213 544L298.383 528H266.043L282.213 544Z" fill="#008C83"/>
<path d="M266.043 529L298.383 561H266.043V529Z" fill="#008C83"/>
<path d="M326.553 544L342.723 528H310.383L326.553 544Z" fill="#008C83"/>
<path d="M310.383 529L342.723 561H310.383V529Z" fill="#008C83"/>
<path d="M370.894 544L387.064 528H354.723L370.894 544Z" fill="#008C83"/>
<path d="M354.723 529L387.064 561H354.723V529Z" fill="#008C83"/>
<path d="M415.234 544L431.404 528H399.064L415.234 544Z" fill="#008C83"/>
<path d="M399.064 529L431.404 561H399.064V529Z" fill="#008C83"/>
<path d="M459.574 544L475.745 528H443.404L459.574 544Z" fill="#008C83"/>
<path d="M443.404 529L475.745 561H443.404V529Z" fill="#008C83"/>
<path d="M503.915 544L520.085 528H487.745L503.915 544Z" fill="#008C83"/>
<path d="M487.745 529L520.085 561H487.745V529Z" fill="#008C83"/>
<path d="M548.255 544L564.426 528H532.085L548.255 544Z" fill="#008C83"/>
<path d="M532.085 529L564.426 561H532.085V529Z" fill="#008C83"/>
<path d="M592.596 544L608.766 528H576.426L592.596 544Z" fill="#008C83"/>
<path d="M576.426 529L608.766 561H576.426V529Z" fill="#008C83"/>
<path d="M636.936 544L653.106 528H620.766L636.936 544Z" fill="#008C83"/>
<path d="M620.766 529L653.106 561H620.766V529Z" fill="#008C83"/>
<path d="M681.277 544L697.447 528H665.106L681.277 544Z" fill="#008C83"/>
<path d="M665.106 529L697.447 561H665.106V529Z" fill="#008C83"/>
<path d="M725.617 544L741.787 528H709.447L725.617 544Z" fill="#008C83"/>
<path d="M709.447 529L741.787 561H709.447V529Z" fill="#008C83"/>
<path d="M769.958 544L786.128 528H753.787L769.958 544Z" fill="#008C83"/>
<path d="M753.787 529L786.128 561H753.787V529Z" fill="#008C83"/>
<path d="M814.298 544L830.468 528H798.128L814.298 544Z" fill="#008C83"/>
<path d="M798.128 529L830.468 561H798.128V529Z" fill="#008C83"/>
<path d="M858.638 544L874.809 528H842.468L858.638 544Z" fill="#008C83"/>
<path d="M842.468 529L874.809 561H842.468V529Z" fill="#008C83"/>
<path d="M902.979 544L919.149 528H886.809L902.979 544Z" fill="#008C83"/>
<path d="M886.809 529L919.149 561H886.809V529Z" fill="#008C83"/>
<path d="M947.319 544L963.49 528H931.149L947.319 544Z" fill="#008C83"/>
<path d="M931.149 529L963.49 561H931.149V529Z" fill="#008C83"/>
<path d="M991.66 544L1007.83 528H975.49L991.66 544Z" fill="#008C83"/>
<path d="M975.49 529L1007.83 561H975.49V529Z" fill="#008C83"/>
<path d="M1036 544L1052.17 528H1019.83L1036 544Z" fill="#008C83"/>
<path d="M1019.83 529L1052.17 561H1019.83V529Z" fill="#008C83"/>
<path d="M1080.34 544L1096.51 528H1064.17L1080.34 544Z" fill="#008C83"/>
<path d="M1064.17 529L1096.51 561H1064.17V529Z" fill="#008C83"/>
<path d="M1124.68 544L1140.85 528H1108.51L1124.68 544Z" fill="#008C83"/>
<path d="M1108.51 529L1140.85 561H1108.51V529Z" fill="#008C83"/>
<path d="M1169.02 544L1185.19 528H1152.85L1169.02 544Z" fill="#008C83"/>
<path d="M1152.85 529L1185.19 561H1152.85V529Z" fill="#008C83"/>
<path d="M1213.36 544L1229.53 528H1197.19L1213.36 544Z" fill="#008C83"/>
<path d="M1197.19 529L1229.53 561H1197.19V529Z" fill="#008C83"/>
<path d="M1257.7 544L1273.87 528H1241.53L1257.7 544Z" fill="#008C83"/>
<path d="M1241.53 529L1273.87 561H1241.53V529Z" fill="#008C83"/>
<path d="M16.1702 588L32.3404 572H0L16.1702 588Z" fill="#008C83"/>
<path d="M0 573L32.3404 605H0V573Z" fill="#008C83"/>
<path d="M60.5106 588L76.6808 572H44.3404L60.5106 588Z" fill="#008C83"/>
<path d="M44.3404 573L76.6808 605H44.3404V573Z" fill="#008C83"/>
<path d="M104.851 588L121.021 572H88.6808L104.851 588Z" fill="#008C83"/>
<path d="M88.6808 573L121.021 605H88.6808V573Z" fill="#008C83"/>
<path d="M149.191 588L165.362 572H133.021L149.191 588Z" fill="#008C83"/>
<path d="M133.021 573L165.362 605H133.021V573Z" fill="#008C83"/>
<path d="M193.532 588L209.702 572H177.362L193.532 588Z" fill="#008C83"/>
<path d="M177.362 573L209.702 605H177.362V573Z" fill="#008C83"/>
<path d="M237.872 588L254.043 572H221.702L237.872 588Z" fill="#008C83"/>
<path d="M221.702 573L254.043 605H221.702V573Z" fill="#008C83"/>
<path d="M282.213 588L298.383 572H266.043L282.213 588Z" fill="#008C83"/>
<path d="M266.043 573L298.383 605H266.043V573Z" fill="#008C83"/>
<path d="M326.553 588L342.723 572H310.383L326.553 588Z" fill="#008C83"/>
<path d="M310.383 573L342.723 605H310.383V573Z" fill="#008C83"/>
<path d="M370.894 588L387.064 572H354.723L370.894 588Z" fill="#008C83"/>
<path d="M354.723 573L387.064 605H354.723V573Z" fill="#008C83"/>
<path d="M415.234 588L431.404 572H399.064L415.234 588Z" fill="#008C83"/>
<path d="M399.064 573L431.404 605H399.064V573Z" fill="#008C83"/>
<path d="M459.574 588L475.745 572H443.404L459.574 588Z" fill="#008C83"/>
<path d="M443.404 573L475.745 605H443.404V573Z" fill="#008C83"/>
<path d="M503.915 588L520.085 572H487.745L503.915 588Z" fill="#008C83"/>
<path d="M487.745 573L520.085 605H487.745V573Z" fill="#008C83"/>
<path d="M548.255 588L564.426 572H532.085L548.255 588Z" fill="#008C83"/>
<path d="M532.085 573L564.426 605H532.085V573Z" fill="#008C83"/>
<path d="M592.596 588L608.766 572H576.426L592.596 588Z" fill="#008C83"/>
<path d="M576.426 573L608.766 605H576.426V573Z" fill="#008C83"/>
<path d="M636.936 588L653.106 572H620.766L636.936 588Z" fill="#008C83"/>
<path d="M620.766 573L653.106 605H620.766V573Z" fill="#008C83"/>
<path d="M681.277 588L697.447 572H665.106L681.277 588Z" fill="#008C83"/>
<path d="M665.106 573L697.447 605H665.106V573Z" fill="#008C83"/>
<path d="M725.617 588L741.787 572H709.447L725.617 588Z" fill="#008C83"/>
<path d="M709.447 573L741.787 605H709.447V573Z" fill="#008C83"/>
<path d="M769.958 588L786.128 572H753.787L769.958 588Z" fill="#008C83"/>
<path d="M753.787 573L786.128 605H753.787V573Z" fill="#008C83"/>
<path d="M814.298 588L830.468 572H798.128L814.298 588Z" fill="#008C83"/>
<path d="M798.128 573L830.468 605H798.128V573Z" fill="#008C83"/>
<path d="M858.638 588L874.809 572H842.468L858.638 588Z" fill="#008C83"/>
<path d="M842.468 573L874.809 605H842.468V573Z" fill="#008C83"/>
<path d="M902.979 588L919.149 572H886.809L902.979 588Z" fill="#008C83"/>
<path d="M886.809 573L919.149 605H886.809V573Z" fill="#008C83"/>
<path d="M947.319 588L963.49 572H931.149L947.319 588Z" fill="#008C83"/>
<path d="M931.149 573L963.49 605H931.149V573Z" fill="#008C83"/>
<path d="M991.66 588L1007.83 572H975.49L991.66 588Z" fill="#008C83"/>
<path d="M975.49 573L1007.83 605H975.49V573Z" fill="#008C83"/>
<path d="M1036 588L1052.17 572H1019.83L1036 588Z" fill="#008C83"/>
<path d="M1019.83 573L1052.17 605H1019.83V573Z" fill="#008C83"/>
<path d="M1080.34 588L1096.51 572H1064.17L1080.34 588Z" fill="#008C83"/>
<path d="M1064.17 573L1096.51 605H1064.17V573Z" fill="#008C83"/>
<path d="M1124.68 588L1140.85 572H1108.51L1124.68 588Z" fill="#008C83"/>
<path d="M1108.51 573L1140.85 605H1108.51V573Z" fill="#008C83"/>
<path d="M1169.02 588L1185.19 572H1152.85L1169.02 588Z" fill="#008C83"/>
<path d="M1152.85 573L1185.19 605H1152.85V573Z" fill="#008C83"/>
<path d="M1213.36 588L1229.53 572H1197.19L1213.36 588Z" fill="#008C83"/>
<path d="M1197.19 573L1229.53 605H1197.19V573Z" fill="#008C83"/>
<path d="M1257.7 588L1273.87 572H1241.53L1257.7 588Z" fill="#008C83"/>
<path d="M1241.53 573L1273.87 605H1241.53V573Z" fill="#008C83"/>
<path d="M16.1702 632L32.3404 616H0L16.1702 632Z" fill="#008C83"/>
<path d="M0 617L32.3404 649H0V617Z" fill="#008C83"/>
<path d="M60.5106 632L76.6808 616H44.3404L60.5106 632Z" fill="#008C83"/>
<path d="M44.3404 617L76.6808 649H44.3404V617Z" fill="#008C83"/>
<path d="M104.851 632L121.021 616H88.6808L104.851 632Z" fill="#008C83"/>
<path d="M88.6808 617L121.021 649H88.6808V617Z" fill="#008C83"/>
<path d="M149.191 632L165.362 616H133.021L149.191 632Z" fill="#008C83"/>
<path d="M133.021 617L165.362 649H133.021V617Z" fill="#008C83"/>
<path d="M193.532 632L209.702 616H177.362L193.532 632Z" fill="#008C83"/>
<path d="M177.362 617L209.702 649H177.362V617Z" fill="#008C83"/>
<path d="M237.872 632L254.043 616H221.702L237.872 632Z" fill="#008C83"/>
<path d="M221.702 617L254.043 649H221.702V617Z" fill="#008C83"/>
<path d="M282.213 632L298.383 616H266.043L282.213 632Z" fill="#008C83"/>
<path d="M266.043 617L298.383 649H266.043V617Z" fill="#008C83"/>
<path d="M326.553 632L342.723 616H310.383L326.553 632Z" fill="#008C83"/>
<path d="M310.383 617L342.723 649H310.383V617Z" fill="#008C83"/>
<path d="M370.894 632L387.064 616H354.723L370.894 632Z" fill="#008C83"/>
<path d="M354.723 617L387.064 649H354.723V617Z" fill="#008C83"/>
<path d="M415.234 632L431.404 616H399.064L415.234 632Z" fill="#008C83"/>
<path d="M399.064 617L431.404 649H399.064V617Z" fill="#008C83"/>
<path d="M459.574 632L475.745 616H443.404L459.574 632Z" fill="#008C83"/>
<path d="M443.404 617L475.745 649H443.404V617Z" fill="#008C83"/>
<path d="M503.915 632L520.085 616H487.745L503.915 632Z" fill="#008C83"/>
<path d="M487.745 617L520.085 649H487.745V617Z" fill="#008C83"/>
<path d="M548.255 632L564.426 616H532.085L548.255 632Z" fill="#008C83"/>
<path d="M532.085 617L564.426 649H532.085V617Z" fill="#008C83"/>
<path d="M592.596 632L608.766 616H576.426L592.596 632Z" fill="#008C83"/>
<path d="M576.426 617L608.766 649H576.426V617Z" fill="#008C83"/>
<path d="M636.936 632L653.106 616H620.766L636.936 632Z" fill="#008C83"/>
<path d="M620.766 617L653.106 649H620.766V617Z" fill="#008C83"/>
<path d="M681.277 632L697.447 616H665.106L681.277 632Z" fill="#008C83"/>
<path d="M665.106 617L697.447 649H665.106V617Z" fill="#008C83"/>
<path d="M725.617 632L741.787 616H709.447L725.617 632Z" fill="#008C83"/>
<path d="M709.447 617L741.787 649H709.447V617Z" fill="#008C83"/>
<path d="M769.958 632L786.128 616H753.787L769.958 632Z" fill="#008C83"/>
<path d="M753.787 617L786.128 649H753.787V617Z" fill="#008C83"/>
<path d="M814.298 632L830.468 616H798.128L814.298 632Z" fill="#008C83"/>
<path d="M798.128 617L830.468 649H798.128V617Z" fill="#008C83"/>
<path d="M858.638 632L874.809 616H842.468L858.638 632Z" fill="#008C83"/>
<path d="M842.468 617L874.809 649H842.468V617Z" fill="#008C83"/>
<path d="M902.979 632L919.149 616H886.809L902.979 632Z" fill="#008C83"/>
<path d="M886.809 617L919.149 649H886.809V617Z" fill="#008C83"/>
<path d="M947.319 632L963.49 616H931.149L947.319 632Z" fill="#008C83"/>
<path d="M931.149 617L963.49 649H931.149V617Z" fill="#008C83"/>
<path d="M991.66 632L1007.83 616H975.49L991.66 632Z" fill="#008C83"/>
<path d="M975.49 617L1007.83 649H975.49V617Z" fill="#008C83"/>
<path d="M1036 632L1052.17 616H1019.83L1036 632Z" fill="#008C83"/>
<path d="M1019.83 617L1052.17 649H1019.83V617Z" fill="#008C83"/>
<path d="M1080.34 632L1096.51 616H1064.17L1080.34 632Z" fill="#008C83"/>
<path d="M1064.17 617L1096.51 649H1064.17V617Z" fill="#008C83"/>
<path d="M1124.68 632L1140.85 616H1108.51L1124.68 632Z" fill="#008C83"/>
<path d="M1108.51 617L1140.85 649H1108.51V617Z" fill="#008C83"/>
<path d="M1169.02 632L1185.19 616H1152.85L1169.02 632Z" fill="#008C83"/>
<path d="M1152.85 617L1185.19 649H1152.85V617Z" fill="#008C83"/>
<path d="M1213.36 632L1229.53 616H1197.19L1213.36 632Z" fill="#008C83"/>
<path d="M1197.19 617L1229.53 649H1197.19V617Z" fill="#008C83"/>
<path d="M1257.7 632L1273.87 616H1241.53L1257.7 632Z" fill="#008C83"/>
<path d="M1241.53 617L1273.87 649H1241.53V617Z" fill="#008C83"/>
<path d="M16.1702 676L32.3404 660H0L16.1702 676Z" fill="#008C83"/>
<path d="M0 661L32.3404 693H0V661Z" fill="#008C83"/>
<path d="M60.5106 676L76.6808 660H44.3404L60.5106 676Z" fill="#008C83"/>
<path d="M44.3404 661L76.6808 693H44.3404V661Z" fill="#008C83"/>
<path d="M104.851 676L121.021 660H88.6808L104.851 676Z" fill="#008C83"/>
<path d="M88.6808 661L121.021 693H88.6808V661Z" fill="#008C83"/>
<path d="M149.191 676L165.362 660H133.021L149.191 676Z" fill="#008C83"/>
<path d="M133.021 661L165.362 693H133.021V661Z" fill="#008C83"/>
<path d="M193.532 676L209.702 660H177.362L193.532 676Z" fill="#008C83"/>
<path d="M177.362 661L209.702 693H177.362V661Z" fill="#008C83"/>
<path d="M237.872 676L254.043 660H221.702L237.872 676Z" fill="#008C83"/>
<path d="M221.702 661L254.043 693H221.702V661Z" fill="#008C83"/>
<path d="M282.213 676L298.383 660H266.043L282.213 676Z" fill="#008C83"/>
<path d="M266.043 661L298.383 693H266.043V661Z" fill="#008C83"/>
<path d="M326.553 676L342.723 660H310.383L326.553 676Z" fill="#008C83"/>
<path d="M310.383 661L342.723 693H310.383V661Z" fill="#008C83"/>
<path d="M370.894 676L387.064 660H354.723L370.894 676Z" fill="#008C83"/>
<path d="M354.723 661L387.064 693H354.723V661Z" fill="#008C83"/>
<path d="M415.234 676L431.404 660H399.064L415.234 676Z" fill="#008C83"/>
<path d="M399.064 661L431.404 693H399.064V661Z" fill="#008C83"/>
<path d="M459.574 676L475.745 660H443.404L459.574 676Z" fill="#008C83"/>
<path d="M443.404 661L475.745 693H443.404V661Z" fill="#008C83"/>
<path d="M503.915 676L520.085 660H487.745L503.915 676Z" fill="#008C83"/>
<path d="M487.745 661L520.085 693H487.745V661Z" fill="#008C83"/>
<path d="M548.255 676L564.426 660H532.085L548.255 676Z" fill="#008C83"/>
<path d="M532.085 661L564.426 693H532.085V661Z" fill="#008C83"/>
<path d="M592.596 676L608.766 660H576.426L592.596 676Z" fill="#008C83"/>
<path d="M576.426 661L608.766 693H576.426V661Z" fill="#008C83"/>
<path d="M636.936 676L653.106 660H620.766L636.936 676Z" fill="#008C83"/>
<path d="M620.766 661L653.106 693H620.766V661Z" fill="#008C83"/>
<path d="M681.277 676L697.447 660H665.106L681.277 676Z" fill="#008C83"/>
<path d="M665.106 661L697.447 693H665.106V661Z" fill="#008C83"/>
<path d="M725.617 676L741.787 660H709.447L725.617 676Z" fill="#008C83"/>
<path d="M709.447 661L741.787 693H709.447V661Z" fill="#008C83"/>
<path d="M769.958 676L786.128 660H753.787L769.958 676Z" fill="#008C83"/>
<path d="M753.787 661L786.128 693H753.787V661Z" fill="#008C83"/>
<path d="M814.298 676L830.468 660H798.128L814.298 676Z" fill="#008C83"/>
<path d="M798.128 661L830.468 693H798.128V661Z" fill="#008C83"/>
<path d="M858.638 676L874.809 660H842.468L858.638 676Z" fill="#008C83"/>
<path d="M842.468 661L874.809 693H842.468V661Z" fill="#008C83"/>
<path d="M902.979 676L919.149 660H886.809L902.979 676Z" fill="#008C83"/>
<path d="M886.809 661L919.149 693H886.809V661Z" fill="#008C83"/>
<path d="M947.319 676L963.49 660H931.149L947.319 676Z" fill="#008C83"/>
<path d="M931.149 661L963.49 693H931.149V661Z" fill="#008C83"/>
<path d="M991.66 676L1007.83 660H975.49L991.66 676Z" fill="#008C83"/>
<path d="M975.49 661L1007.83 693H975.49V661Z" fill="#008C83"/>
<path d="M1036 676L1052.17 660H1019.83L1036 676Z" fill="#008C83"/>
<path d="M1019.83 661L1052.17 693H1019.83V661Z" fill="#008C83"/>
<path d="M1080.34 676L1096.51 660H1064.17L1080.34 676Z" fill="#008C83"/>
<path d="M1064.17 661L1096.51 693H1064.17V661Z" fill="#008C83"/>
<path d="M1124.68 676L1140.85 660H1108.51L1124.68 676Z" fill="#008C83"/>
<path d="M1108.51 661L1140.85 693H1108.51V661Z" fill="#008C83"/>
<path d="M1169.02 676L1185.19 660H1152.85L1169.02 676Z" fill="#008C83"/>
<path d="M1152.85 661L1185.19 693H1152.85V661Z" fill="#008C83"/>
<path d="M1213.36 676L1229.53 660H1197.19L1213.36 676Z" fill="#008C83"/>
<path d="M1197.19 661L1229.53 693H1197.19V661Z" fill="#008C83"/>
<path d="M1257.7 676L1273.87 660H1241.53L1257.7 676Z" fill="#008C83"/>
<path d="M1241.53 661L1273.87 693H1241.53V661Z" fill="#008C83"/>
<path d="M16.1702 720L32.3404 704H0L16.1702 720Z" fill="#008C83"/>
<path d="M0 705L32.3404 737H0V705Z" fill="#008C83"/>
<path d="M60.5106 720L76.6808 704H44.3404L60.5106 720Z" fill="#008C83"/>
<path d="M44.3404 705L76.6808 737H44.3404V705Z" fill="#008C83"/>
<path d="M104.851 720L121.021 704H88.6808L104.851 720Z" fill="#008C83"/>
<path d="M88.6808 705L121.021 737H88.6808V705Z" fill="#008C83"/>
<path d="M149.191 720L165.362 704H133.021L149.191 720Z" fill="#008C83"/>
<path d="M133.021 705L165.362 737H133.021V705Z" fill="#008C83"/>
<path d="M193.532 720L209.702 704H177.362L193.532 720Z" fill="#008C83"/>
<path d="M177.362 705L209.702 737H177.362V705Z" fill="#008C83"/>
<path d="M237.872 720L254.043 704H221.702L237.872 720Z" fill="#008C83"/>
<path d="M221.702 705L254.043 737H221.702V705Z" fill="#008C83"/>
<path d="M282.213 720L298.383 704H266.043L282.213 720Z" fill="#008C83"/>
<path d="M266.043 705L298.383 737H266.043V705Z" fill="#008C83"/>
<path d="M326.553 720L342.723 704H310.383L326.553 720Z" fill="#008C83"/>
<path d="M310.383 705L342.723 737H310.383V705Z" fill="#008C83"/>
<path d="M370.894 720L387.064 704H354.723L370.894 720Z" fill="#008C83"/>
<path d="M354.723 705L387.064 737H354.723V705Z" fill="#008C83"/>
<path d="M415.234 720L431.404 704H399.064L415.234 720Z" fill="#008C83"/>
<path d="M399.064 705L431.404 737H399.064V705Z" fill="#008C83"/>
<path d="M459.574 720L475.745 704H443.404L459.574 720Z" fill="#008C83"/>
<path d="M443.404 705L475.745 737H443.404V705Z" fill="#008C83"/>
<path d="M503.915 720L520.085 704H487.745L503.915 720Z" fill="#008C83"/>
<path d="M487.745 705L520.085 737H487.745V705Z" fill="#008C83"/>
<path d="M548.255 720L564.426 704H532.085L548.255 720Z" fill="#008C83"/>
<path d="M532.085 705L564.426 737H532.085V705Z" fill="#008C83"/>
<path d="M592.596 720L608.766 704H576.426L592.596 720Z" fill="#008C83"/>
<path d="M576.426 705L608.766 737H576.426V705Z" fill="#008C83"/>
<path d="M636.936 720L653.106 704H620.766L636.936 720Z" fill="#008C83"/>
<path d="M620.766 705L653.106 737H620.766V705Z" fill="#008C83"/>
<path d="M681.277 720L697.447 704H665.106L681.277 720Z" fill="#008C83"/>
<path d="M665.106 705L697.447 737H665.106V705Z" fill="#008C83"/>
<path d="M725.617 720L741.787 704H709.447L725.617 720Z" fill="#008C83"/>
<path d="M709.447 705L741.787 737H709.447V705Z" fill="#008C83"/>
<path d="M769.958 720L786.128 704H753.787L769.958 720Z" fill="#008C83"/>
<path d="M753.787 705L786.128 737H753.787V705Z" fill="#008C83"/>
<path d="M814.298 720L830.468 704H798.128L814.298 720Z" fill="#008C83"/>
<path d="M798.128 705L830.468 737H798.128V705Z" fill="#008C83"/>
<path d="M858.638 720L874.809 704H842.468L858.638 720Z" fill="#008C83"/>
<path d="M842.468 705L874.809 737H842.468V705Z" fill="#008C83"/>
<path d="M902.979 720L919.149 704H886.809L902.979 720Z" fill="#008C83"/>
<path d="M886.809 705L919.149 737H886.809V705Z" fill="#008C83"/>
<path d="M947.319 720L963.49 704H931.149L947.319 720Z" fill="#008C83"/>
<path d="M931.149 705L963.49 737H931.149V705Z" fill="#008C83"/>
<path d="M991.66 720L1007.83 704H975.49L991.66 720Z" fill="#008C83"/>
<path d="M975.49 705L1007.83 737H975.49V705Z" fill="#008C83"/>
<path d="M1036 720L1052.17 704H1019.83L1036 720Z" fill="#008C83"/>
<path d="M1019.83 705L1052.17 737H1019.83V705Z" fill="#008C83"/>
<path d="M1080.34 720L1096.51 704H1064.17L1080.34 720Z" fill="#008C83"/>
<path d="M1064.17 705L1096.51 737H1064.17V705Z" fill="#008C83"/>
<path d="M1124.68 720L1140.85 704H1108.51L1124.68 720Z" fill="#008C83"/>
<path d="M1108.51 705L1140.85 737H1108.51V705Z" fill="#008C83"/>
<path d="M1169.02 720L1185.19 704H1152.85L1169.02 720Z" fill="#008C83"/>
<path d="M1152.85 705L1185.19 737H1152.85V705Z" fill="#008C83"/>
<path d="M1213.36 720L1229.53 704H1197.19L1213.36 720Z" fill="#008C83"/>
<path d="M1197.19 705L1229.53 737H1197.19V705Z" fill="#008C83"/>
<path d="M1257.7 720L1273.87 704H1241.53L1257.7 720Z" fill="#008C83"/>
<path d="M1241.53 705L1273.87 737H1241.53V705Z" fill="#008C83"/>
</g>
</svg>
